<svg width="100" height="100" viewBox="0 0 100 100" fill="none" xmlns="http://www.w3.org/2000/svg">
<mask id="mask0_4947_304" style="mask-type:luminance" maskUnits="userSpaceOnUse" x="0" y="0" width="100" height="100">
<path d="M0 7.62939e-06H100V100H0V7.62939e-06Z" fill="white"/>
</mask>
<g mask="url(#mask0_4947_304)">
<path d="M98.0469 11.219C98.0469 8.72678 96.0266 6.70647 93.5344 6.70647H6.46563C3.97344 6.70647 1.95312 8.72678 1.95312 11.219V21.1744H98.0469V11.219Z" stroke="#E2EAF8" stroke-width="3.90625" stroke-miterlimit="10" stroke-linecap="round" stroke-linejoin="round"/>
<path d="M1.95312 21.1744V88.781C1.95312 91.273 3.97344 93.2933 6.46563 93.2933H93.5344C96.0266 93.2933 98.0469 91.273 98.0469 88.781V21.1744H1.95312Z" stroke="#E2EAF8" stroke-width="3.90625" stroke-miterlimit="10" stroke-linecap="round" stroke-linejoin="round"/>
<path d="M86.8633 45.5668C86.8633 49.1801 85.3984 52.4535 83.0293 54.8207C80.6602 57.1898 77.3887 58.6547 73.7754 58.6547C66.5469 58.6547 60.6875 52.7953 60.6875 45.5668C60.6875 41.9535 62.1523 38.682 64.5215 36.3129C66.8887 33.9457 70.16 32.4808 73.7754 32.4808C77.3887 32.4808 80.6602 33.9457 83.0293 36.3129C85.3984 38.682 86.8633 41.9535 86.8633 45.5668Z" stroke="#E2EAF8" stroke-width="3.90625" stroke-miterlimit="10" stroke-linecap="round" stroke-linejoin="round"/>
<path d="M86.8633 45.5668C86.8633 49.1801 85.3984 52.4535 83.0293 54.8207L73.7754 45.5668V32.4808C77.3887 32.4808 80.6602 33.9457 83.0293 36.3129C85.3984 38.682 86.8633 41.9535 86.8633 45.5668Z" stroke="#E2EAF8" stroke-width="3.90625" stroke-miterlimit="10" stroke-linecap="round" stroke-linejoin="round"/>
<path d="M60.6875 69.7986H86.8633" stroke="#E2EAF8" stroke-width="3.90625" stroke-miterlimit="10" stroke-linecap="round" stroke-linejoin="round"/>
<path d="M25.1396 69.7986H15.4585V51.4632H25.1396V69.7986Z" stroke="#E2EAF8" stroke-width="3.90625" stroke-miterlimit="10" stroke-linecap="round" stroke-linejoin="round"/>
<path d="M43.715 69.7986H34.0342V38.9857H43.715V69.7986Z" stroke="#E2EAF8" stroke-width="3.90625" stroke-miterlimit="10" stroke-linecap="round" stroke-linejoin="round"/>
<path d="M11.9141 69.7986H48.2422" stroke="#E2EAF8" stroke-width="3.90625" stroke-miterlimit="10" stroke-linecap="round" stroke-linejoin="round"/>
<path d="M20.9717 80.7931H86.8631" stroke="#E2EAF8" stroke-width="3.90625" stroke-miterlimit="10" stroke-linecap="round" stroke-linejoin="round"/>
</g>
</svg>
