<svg preserveAspectRatio="none" width="100%" height="100%" overflow="visible" style="display: block;" viewBox="0 0 16.9998 17" fill="none" xmlns="http://www.w3.org/2000/svg">
<g id="icon">
<g id="Vector">
</g>
<path id="Vector_2" fill-rule="evenodd" clip-rule="evenodd" d="M3.75494 13.5626C4.72035 14.5949 5.69147 15.338 6.42538 15.8259L7.14116 16.2771C7.34155 16.4 7.67903 16.606 7.90148 16.7008L8.60345 17L10.0362 16.1716L10.0416 16.1685C10.4986 15.8992 11.1175 15.4949 11.799 14.9388C13.1576 13.8301 14.7271 12.0784 15.8012 9.56037L16.0006 8.98192C16.2084 8.33152 16.6308 6.99945 16.6575 6.87444C16.8818 5.84093 17.0209 4.88908 16.9972 3.59571L16.9795 2.62958L16.2833 2.19058C10.3921 -1.73562 3.54262 0.497979 0.854301 2.10556C0.738186 2.17361 0.257666 2.47055 0.0319319 2.61051L0.00579523 3.58023C-0.118972 8.21058 1.80897 11.4817 3.75494 13.5626ZM10.834 13.7579C12.0579 12.7591 13.5227 11.2012 14.475 8.96881V8.76432L14.4048 8.66393C11.9824 6.5538 9.76346 6.24884 8.28061 6.37916C7.77656 6.42345 7.35755 6.51801 7.04454 6.60908L6.76811 6.68953L6.86837 6.95804C6.95887 7.20032 7.11937 7.57019 7.30913 7.93387C7.33702 7.9873 7.3658 8.04115 7.3954 8.09491C7.56406 8.40137 7.75847 8.70506 7.95442 8.90809L8.05278 9.01003L8.19282 8.98638C8.62853 8.91283 9.00122 8.90897 9.31791 8.94631C9.69051 8.99021 9.98561 9.09111 10.2146 9.20249C10.2784 9.23355 10.3376 9.26564 10.3923 9.29791C10.5208 9.37377 10.6248 9.4506 10.707 9.51724C10.7255 9.53217 10.7427 9.54656 10.759 9.56037C9.711 11.0231 8.8505 11.7278 8.51533 11.9675C5.48267 9.52662 4.66106 6.25806 4.49228 5.40378C7.40087 4.36126 9.47437 4.37956 11.0441 4.79476C12.1245 5.08054 12.976 5.55493 13.7174 6.03045C13.7832 6.07258 13.848 6.11475 13.9121 6.15679C14.0052 6.21784 14.0966 6.27865 14.1866 6.33878C14.2304 6.36802 14.2738 6.3971 14.317 6.42597C14.4671 6.52645 14.6135 6.62451 14.7575 6.71819L15.0384 6.95804L15.1665 6.55122C15.1967 6.41222 15.225 6.27576 15.2513 6.14052C15.2678 6.05592 15.2835 5.9718 15.2983 5.8878C15.3324 5.69479 15.3621 5.50248 15.3869 5.30682C15.452 4.79321 15.4834 4.2565 15.4718 3.62358L15.4692 3.47999L15.3472 3.40313C8.42787 -0.959761 2.39312 2.93788 1.74364 3.35632C1.72287 3.3697 1.66762 3.39557 1.65812 3.40143L1.53475 3.47717L1.5309 3.62127C1.41924 7.76378 3.13135 10.6629 4.86958 12.5216C5.73755 13.4497 6.61219 14.1189 7.27045 14.5566C7.60207 14.7705 8.31224 15.2184 8.50003 15.2984L9.26673 14.8551C9.66832 14.6185 10.2217 14.2576 10.834 13.7579Z" fill="var(--fill-0, #031625)"/>
</g>
</svg>
