<svg xmlns:xlink="http://www.w3.org/1999/xlink"  xmlns="http://www.w3.org/2000/svg" width="24" height="24" fill="none"><path fill="#555D61" d="M1 8.045c0 .612.51 1.031 1.24 1.031.743 0 1.247-.42 1.247-1.03C3.487 7.425 2.983 7 2.239 7 1.512 7 1 7.42 1 8.045Zm.255 9.77h1.976v-7.544H1.255v7.544ZM13.83 13.591v-1.244c0-2.745-1.646-4.423-4.388-4.423s-4.394 1.664-4.394 4.423v1.245C5.048 16.328 6.7 18 9.442 18s4.387-1.671 4.387-4.409Zm-2.06-1.258v1.266c0 1.87-.976 2.801-2.328 2.801-1.36 0-2.329-.931-2.329-2.801v-1.266c0-1.87.97-2.809 2.33-2.809 1.351 0 2.328.939 2.328 2.809ZM14.977 15.17c.09 1.536 1.352 2.83 3.959 2.83 2.6 0 4.064-1.237 4.064-3.043 0-1.629-1.097-2.382-2.757-2.738l-1.592-.348c-.902-.185-1.405-.57-1.405-1.152 0-.754.668-1.301 1.788-1.301 1.089 0 1.757.533 1.885 1.23h1.923c-.097-1.494-1.45-2.738-3.793-2.738-2.261 0-3.832 1.16-3.832 2.937 0 1.472 1.007 2.34 2.6 2.68l1.585.349c1.066.235 1.577.583 1.577 1.258 0 .797-.668 1.344-1.93 1.344-1.21 0-1.976-.554-2.111-1.308h-1.96Z"></path></svg>