<svg xmlns:xlink="http://www.w3.org/1999/xlink"  class="MuiBox-root mui-2cy7sg" xmlns="http://www.w3.org/2000/svg" viewBox="0 0 515 120" preserveAspectRatio="xMinYMid meet"><path d="M36.0404 23.1199C40.629 23.0956 45.1786 23.89 49.4342 25.4586C53.4803 26.9377 57.1959 29.081 60.3976 31.7826C63.5116 34.4392 66.016 37.6356 67.7646 41.1856C69.5414 44.8238 70.4598 48.7633 70.4598 52.7474C70.4598 56.7315 69.5414 60.671 67.7646 64.3092C66.0006 67.8511 63.4983 71.0449 60.3976 73.7122C53.7864 79.3403 45.0757 82.4531 36.0404 82.4164H14.0833C11.8277 82.4674 9.57863 82.1751 7.42804 81.5515C5.76141 81.0548 4.26058 80.1785 3.06691 79.0053C1.96012 77.8352 1.16917 76.4441 0.757628 74.9438C0.241927 73.1745 -0.0127073 71.3502 0.000487647 69.5192V35.9825C-0.012304 34.1538 0.242329 32.3318 0.757628 30.5648C1.18435 29.0674 1.99986 27.6861 3.13505 26.5379C4.34909 25.3872 5.84336 24.5148 7.49618 23.9917C9.6408 23.3417 11.8927 23.0374 14.1514 23.0922L36.0404 23.1199ZM14.742 31.9902C14.2819 32.008 13.8275 32.0897 13.3943 32.2323C12.8449 32.3939 12.332 32.6447 11.88 32.9727C11.4086 33.3276 11.0133 33.7592 10.714 34.2458C10.3701 34.8098 10.1975 35.4477 10.2143 36.0932V69.4431C10.1897 70.1158 10.3623 70.7822 10.714 71.3736C11.0215 71.8649 11.4273 72.2992 11.9103 72.6536C12.3554 72.9802 12.8716 73.2161 13.4246 73.3455C13.8617 73.4693 14.3149 73.5391 14.7723 73.5531H35.5028C38.7887 73.5765 42.0503 73.0367 45.1185 71.9617C48.0298 70.9282 50.7033 69.405 53.0003 67.4712C55.2471 65.6451 57.0677 63.4236 58.3533 60.9396C59.6255 58.4016 60.284 55.6428 60.284 52.8512C60.284 50.0596 59.6255 47.3008 58.3533 44.7628C57.0542 42.2621 55.2363 40.0157 53.0003 38.1481C48.221 34.147 41.9617 31.9469 35.4801 31.9902H14.742Z" fill="currentColor" fill-rule="evenodd" clip-rule="evenodd"></path><path d="M137.868 23.115H148.203V68.5321C148.217 70.3745 147.834 72.2014 147.074 73.9082C146.347 75.5544 145.263 77.049 143.887 78.3019C142.548 79.5787 140.945 80.5994 139.17 81.3048C137.314 82.0489 135.306 82.4262 133.279 82.4118C132.316 82.4155 131.353 82.3461 130.402 82.2043C129.515 82.0734 128.643 81.8673 127.798 81.5885C126.272 81.1668 124.841 80.499 123.573 79.6165C122.407 78.8282 121.365 77.8969 120.476 76.8489C119.713 75.9264 119.008 74.9655 118.364 73.9705C117.94 73.3132 117.607 72.6974 117.281 72.1231C116.955 71.5488 116.713 71.0437 116.478 70.6078C116.244 70.1719 115.721 69.3485 115.169 68.3038L113.147 64.6089C112.39 63.2251 111.549 61.6268 110.679 59.9316C109.808 58.2364 108.892 56.4721 107.938 54.7561C106.984 53.0402 106.037 51.2965 105.106 49.5391C104.175 47.7816 103.312 46.1972 102.502 44.6957C101.691 43.1943 100.987 41.8589 100.389 40.7103C99.791 39.5617 99.3065 38.6345 98.9506 37.998C98.5948 37.3614 98.3373 36.8217 98.0042 36.2751C97.6711 35.7285 97.3606 35.2373 97.0653 34.7944C96.6316 34.2025 96.1508 33.6406 95.6268 33.1131C95.3212 32.7804 94.9385 32.5141 94.5063 32.3334C94.0742 32.1527 93.6034 32.0621 93.1282 32.0683C91.7182 32.0662 90.3619 32.562 89.3425 33.4521C88.4236 34.4343 87.9425 35.6964 87.9948 36.9878V82.4049H77.6523V36.9947C77.5399 33.3766 78.9926 29.8638 81.6954 27.218C83.0883 25.8947 84.7644 24.8475 86.6192 24.1416C88.4741 23.4358 90.4681 23.0863 92.4771 23.115C94.4971 23.0852 96.5084 23.3635 98.4282 23.9383C100.331 24.5112 102.035 25.5299 103.372 26.8928C104.409 27.8764 105.34 28.9492 106.151 30.0963C106.757 30.9128 107.355 31.8192 107.953 32.8017C108.551 33.7842 109.18 34.8775 109.838 36.0883C110.621 37.569 111.729 39.624 113.162 42.2533C114.596 44.8825 116.09 47.634 117.644 50.5078C119.204 53.3861 120.686 56.1538 122.089 58.8107C123.492 61.4677 124.618 63.5434 125.466 65.0379C125.714 65.3872 125.925 65.758 126.094 66.145C126.168 66.3693 126.289 66.5785 126.45 66.7608C126.935 67.5288 127.336 68.2138 127.661 68.8365C127.987 69.4592 128.305 69.9851 128.608 70.4764C128.79 70.6978 128.994 70.9815 129.236 71.3412C129.485 71.7069 129.771 72.0499 130.092 72.3653C130.426 72.6991 130.82 72.9777 131.258 73.1887C131.725 73.4099 132.246 73.5217 132.772 73.5139C133.551 73.517 134.324 73.3782 135.043 73.1056C135.622 72.8816 136.139 72.5438 136.558 72.1162C137.48 71.1382 137.964 69.8778 137.913 68.5874V23.115" fill="currentColor" fill-rule="evenodd" clip-rule="evenodd"></path><path d="M208.002 73.5177C207.805 73.5177 207.616 73.5177 207.426 73.5177H160.151V82.3881H200.218C202.785 79.6758 205.39 76.7143 208.002 73.49" fill="currentColor" fill-rule="evenodd" clip-rule="evenodd"></path><path d="M160.961 52.515C162.671 54.0893 164.7 55.3443 166.935 56.2098C169.254 57.1 171.749 57.5474 174.264 57.5244H207.457C209.318 57.517 211.134 58.0486 212.644 59.0431C214.154 60.0376 215.281 61.4438 215.861 63.0597C217.88 60.126 219.746 57.2546 221.457 54.4454C221.169 54.1479 220.889 53.8503 220.578 53.5667C218.889 52.0269 216.892 50.7983 214.695 49.948C212.405 49.0664 209.942 48.6191 207.457 48.6333H174.355C173.197 48.5911 172.059 48.3373 171.01 47.8869C169.96 47.4365 169.02 46.7986 168.245 46.011C167.473 45.2506 166.848 44.3755 166.397 43.4232C165.947 42.4493 165.717 41.4017 165.724 40.3442C165.71 39.2592 165.939 38.1831 166.397 37.1821C166.846 36.229 167.471 35.3536 168.245 34.5944C169.825 33.0193 172.02 32.075 174.355 31.9651H221.177V23.1155H174.234C171.712 23.1016 169.214 23.5731 166.905 24.4994C164.692 25.3828 162.669 26.62 160.931 28.1527C159.195 29.7432 157.807 31.6219 156.842 33.688C155.831 35.8138 155.315 38.1091 155.328 40.4272C155.322 42.7157 155.838 44.9803 156.842 47.0765C157.805 49.1435 159.193 51.0226 160.931 52.6118" fill="currentColor" fill-rule="evenodd" clip-rule="evenodd"></path><path d="M257.338 82.4106V40.3632C257.317 38.0976 257.8 35.8516 258.758 33.7617C259.716 31.6719 261.129 29.7819 262.911 28.2064C264.627 26.6284 266.654 25.3608 268.884 24.4701C271.194 23.543 273.691 23.0715 276.214 23.0863H319.083V31.9842H276.842C275.618 31.9857 274.409 32.2214 273.291 32.6761C271.618 33.3348 270.189 34.4213 269.177 35.8047C268.164 37.1882 267.61 38.8096 267.582 40.474V46.881H319.068V55.7167H267.582V82.4106H257.338Z" fill="currentColor" fill-rule="evenodd" clip-rule="evenodd"></path><path d="M326.267 32.3107H336.511V23.1152H326.267V32.3107ZM326.267 82.4117H336.511V40.0324H326.267V82.4117Z" fill="currentColor" fill-rule="evenodd" clip-rule="evenodd"></path><path d="M364.284 82.4116C361.78 82.418 359.302 81.9466 357.008 81.0278C354.746 80.1479 352.69 78.8795 350.951 77.2915C349.215 75.7554 347.839 73.912 346.908 71.8739C345.936 69.7391 345.447 67.4468 345.47 65.1347V23.1152H355.714V65.0793C355.703 66.1775 355.932 67.2666 356.387 68.2829C356.826 69.2532 357.452 70.1437 358.235 70.9121C359.874 72.4606 362.084 73.3976 364.436 73.5414L366.321 73.6244V82.4116H364.254" fill="currentColor" fill-rule="evenodd" clip-rule="evenodd"></path><path d="M395.108 82.409C392.595 82.432 390.103 81.9846 387.786 81.0944C385.551 80.2304 383.521 78.9753 381.812 77.3995C380.087 75.83 378.701 73.9781 377.724 71.9403C376.709 69.8299 376.193 67.5477 376.21 65.2426V48.9826H371.758V40.1261H376.255V27.7893H386.59V40.1261H400.68V48.9826H386.575V65.1596C386.543 66.224 386.749 67.2832 387.181 68.272C387.613 69.2608 388.263 70.1584 389.089 70.9094C389.864 71.6977 390.804 72.3364 391.853 72.788C392.902 73.2395 394.04 73.4947 395.199 73.5387H402.482V82.409H395.108Z" fill="currentColor" fill-rule="evenodd" clip-rule="evenodd"></path><path d="M419.109 66.2301C419.221 67.1483 419.524 68.0383 420.002 68.8525C420.469 69.6549 421.044 70.401 421.713 71.0735C422.565 71.872 423.588 72.5026 424.717 72.9262C425.846 73.3499 427.058 73.5576 428.278 73.5367H465.749V82.407H427.642C425.114 82.4271 422.608 81.9799 420.275 81.0924C418.039 80.2468 416.018 78.989 414.339 77.3976C412.607 75.8039 411.22 73.926 410.25 71.8623C409.242 69.7354 408.727 67.4409 408.736 65.1231V57.2768C408.724 54.9722 409.24 52.6908 410.25 50.5791C411.232 48.5441 412.618 46.6931 414.339 45.1199C416.023 43.5329 418.042 42.2757 420.275 41.4251C422.608 40.5376 425.114 40.0904 427.642 40.1105H452.537C456.245 40.0937 459.876 41.0784 462.974 42.9408C466.072 44.8033 468.499 47.4606 469.951 50.5791C470.925 52.6987 471.415 54.978 471.389 57.2768V66.2301H419.109ZM421.729 51.444C420.888 52.2099 420.217 53.1167 419.752 54.1148C419.254 55.136 418.996 56.2416 418.995 57.3598H461.145C461.141 56.242 460.883 55.1371 460.388 54.1148C459.923 53.1167 459.253 52.2099 458.412 51.444C457.559 50.6464 456.537 50.0166 455.408 49.593C454.279 49.1694 453.068 48.9611 451.848 48.9808H428.278C427.06 48.9618 425.851 49.1704 424.725 49.594C423.598 50.0176 422.579 50.6472 421.729 51.444Z" fill="currentColor" fill-rule="evenodd" clip-rule="evenodd"></path><path d="M515 40.1244V48.9808H498.555C497.334 48.9598 496.122 49.1676 494.993 49.5912C493.864 50.0149 492.842 50.6454 491.99 51.4439C491.15 52.2098 490.479 53.1166 490.014 54.1147C489.519 55.137 489.262 56.2418 489.257 57.3597V82.4065H479.051V57.2766C479.045 54.986 479.56 52.7192 480.565 50.6206C481.519 48.569 482.873 46.6933 484.563 45.0854C486.318 43.4884 488.403 42.2271 490.698 41.3753C492.992 40.5235 495.45 40.0983 497.926 40.1244H515Z" fill="currentColor" fill-rule="evenodd" clip-rule="evenodd"></path><path d="M213.929 12.8271C222.72 6.91815 230.344 4.68329 234.963 7.45092C244.904 13.4013 237.196 40.2128 217.745 67.3356C198.295 94.4584 174.475 111.618 164.541 105.667C159.915 102.9 159.112 95.6139 161.513 85.8926C156.122 101.73 156.402 114.122 163.595 118.412C176.178 125.954 205.139 105.903 228.27 73.6389C251.4 41.3752 259.986 9.11842 247.403 1.58354C240.21 -2.72013 227.672 1.98485 213.929 12.8271Z" fill="#3527fd" fill-rule="evenodd" clip-rule="evenodd"></path><span style="display: none;">DNSFilter</span></svg>