<svg xmlns:xlink="http://www.w3.org/1999/xlink"  xmlns="http://www.w3.org/2000/svg" width="24" height="24" fill="none"><path fill="#737373" fill-rule="evenodd" d="M12.828 3.74C14.118 2.008 15.91 2 15.91 2s.267 1.628-1.014 3.197c-1.368 1.675-2.923 1.4-2.923 1.4s-.292-1.316.855-2.857Zm-.69 3.999c.663 0 1.894-.93 3.496-.93 2.76 0 3.844 2 3.844 2s-2.122 1.107-2.122 3.79c0 3.027 2.644 4.07 2.644 4.07s-1.848 5.302-4.345 5.302c-1.147 0-2.038-.788-3.246-.788-1.232 0-2.453.817-3.25.817C6.88 22 4 16.971 4 12.929 4 8.95 6.438 6.865 8.724 6.865c1.487 0 2.64.874 3.413.874Z" clip-rule="evenodd"></path></svg>