<svg width="100" height="100" viewBox="0 0 100 100" fill="none" xmlns="http://www.w3.org/2000/svg">
<g clip-path="url(#clip0_4908_229)">
<path d="M48.8281 35.1562C49.9062 35.1562 50.7812 34.2812 50.7812 33.2031C50.7812 32.1251 49.9062 31.25 48.8281 31.25C47.7501 31.25 46.875 32.1251 46.875 33.2031C46.875 34.2812 47.7501 35.1562 48.8281 35.1562Z" fill="#E2EAF8"/>
<path d="M48.8281 42.9688C49.9062 42.9688 50.7812 42.0937 50.7812 41.0156C50.7812 39.9376 49.9062 39.0625 48.8281 39.0625C47.7501 39.0625 46.875 39.9376 46.875 41.0156C46.875 42.0937 47.7501 42.9688 48.8281 42.9688Z" fill="#E2EAF8"/>
<path d="M99.4278 20.1035L79.8965 0.572205C79.5509 0.22583 79.0489 0 78.5156 0H29.2969C26.0658 0 23.4375 2.62833 23.4375 5.85938V11.8088C22.789 11.75 22.1367 11.7188 21.4844 11.7188C9.63821 11.7188 0 21.357 0 33.2031C0 45.0493 9.63821 54.6875 21.4844 54.6875C22.1367 54.6875 22.789 54.6562 23.4375 54.5975V94.1406C23.4375 97.3717 26.0658 100 29.2969 100H94.1406C97.3717 100 100 97.3717 100 94.1406V21.4844C100 20.9511 99.778 20.4536 99.4278 20.1035ZM80.4688 6.66809L93.3319 19.5312H80.4688V6.66809ZM23.4375 15.7341C31.6849 16.6443 38.0478 23.2201 38.9496 31.25H23.4375V15.7341ZM3.90625 33.2031C3.90625 24.1707 10.7544 16.7091 19.5312 15.7341V33.2031C19.5312 34.2819 20.4056 35.154 21.4844 35.154H38.9496C37.9684 43.8911 30.5763 50.7812 21.4844 50.7812C11.792 50.7812 3.90625 42.8955 3.90625 33.2031ZM94.1406 96.0938H29.2969C28.2196 96.0938 27.3438 95.2179 27.3438 94.1406V53.8742C36.4868 51.2863 42.9688 42.8406 42.9688 33.2031C42.9688 23.5657 36.4868 15.1199 27.3438 12.532V5.85938C27.3438 4.7821 28.2196 3.90625 29.2969 3.90625H76.5625V21.4844C76.5625 22.5632 77.4368 23.4375 78.5156 23.4375H96.0938V94.1406C96.0938 95.2179 95.2179 96.0938 94.1406 96.0938Z" fill="#E2EAF8"/>
<path d="M50 15.625H70.7031C71.7819 15.625 72.6562 14.7507 72.6562 13.6719C72.6562 12.5931 71.7819 11.7188 70.7031 11.7188H50C48.9212 11.7188 48.0469 12.5931 48.0469 13.6719C48.0469 14.7507 48.9212 15.625 50 15.625Z" fill="#E2EAF8"/>
<path d="M50 23.4375H70.7031C71.7819 23.4375 72.6562 22.5632 72.6562 21.4844C72.6562 20.4056 71.7819 19.5312 70.7031 19.5312H50C48.9212 19.5312 48.0469 20.4056 48.0469 21.4844C48.0469 22.5632 48.9212 23.4375 50 23.4375Z" fill="#E2EAF8"/>
<path d="M21.4844 42.9688C16.0995 42.9688 11.7188 38.588 11.7188 33.2031C11.7188 32.1243 10.8444 31.25 9.76562 31.25C8.68683 31.25 7.8125 32.1243 7.8125 33.2031C7.8125 40.7417 13.9458 46.875 21.4844 46.875C22.5632 46.875 23.4375 46.0007 23.4375 44.9219C23.4375 43.8431 22.5632 42.9688 21.4844 42.9688Z" fill="#E2EAF8"/>
<path d="M85.7422 51.9531C82.5111 51.9531 79.8828 54.5815 79.8828 57.8125C79.8828 59.0233 80.2521 60.1501 80.8838 61.0847L67.321 75.6416C66.7839 75.4791 66.2148 75.3906 65.625 75.3906C64.801 75.3906 64.0038 75.5615 63.2713 75.8827L57.1625 68.3098C57.5867 67.4896 57.8125 66.5749 57.8125 65.625C57.8125 62.394 55.1842 59.7656 51.9531 59.7656C48.7221 59.7656 46.0938 62.394 46.0938 65.625C46.0938 66.5375 46.3028 67.4171 46.6949 68.2121L39.5729 75.9315C38.8107 75.5775 37.9745 75.3906 37.1094 75.3906C33.8783 75.3906 31.25 78.019 31.25 81.25C31.25 84.481 33.8783 87.1094 37.1094 87.1094C40.3404 87.1094 42.9688 84.481 42.9688 81.25C42.9688 80.3375 42.7605 79.4579 42.3676 78.6629L49.4896 70.9435C50.2518 71.2975 51.088 71.4844 51.9531 71.4844C52.7771 71.4844 53.5744 71.3135 54.3068 70.9923L60.4156 78.5652C59.9915 79.3854 59.7656 80.3001 59.7656 81.25C59.7656 84.481 62.394 87.1094 65.625 87.1094C68.856 87.1094 71.4844 84.481 71.4844 81.25C71.4844 80.0392 71.1151 78.9124 70.4834 77.9778L84.0462 63.4209C84.5833 63.5834 85.1524 63.6719 85.7422 63.6719C88.9732 63.6719 91.6016 61.0435 91.6016 57.8125C91.6016 54.5815 88.9732 51.9531 85.7422 51.9531ZM37.1094 83.2031C36.0321 83.2031 35.1562 82.3273 35.1562 81.25C35.1562 80.1727 36.0321 79.2969 37.1094 79.2969C38.1874 79.2969 39.0625 80.1712 39.0625 81.25C39.0625 82.3273 38.1866 83.2031 37.1094 83.2031ZM50 65.625C50 64.5477 50.8759 63.6719 51.9531 63.6719C53.0304 63.6719 53.9062 64.5477 53.9062 65.625C53.9062 66.703 53.0319 67.5781 51.9531 67.5781C50.8743 67.5781 50 66.703 50 65.625ZM65.625 83.2031C64.5477 83.2031 63.6719 82.3273 63.6719 81.25C63.6719 80.172 64.5462 79.2969 65.625 79.2969C66.7023 79.2969 67.5781 80.1727 67.5781 81.25C67.5781 82.3273 66.7023 83.2031 65.625 83.2031ZM85.7422 59.7656C84.6649 59.7656 83.7891 58.8898 83.7891 57.8125C83.7891 56.7352 84.6649 55.8594 85.7422 55.8594C86.8195 55.8594 87.6953 56.7352 87.6953 57.8125C87.6953 58.8898 86.8195 59.7656 85.7422 59.7656Z" fill="#E2EAF8"/>
<path d="M54.6875 33.2031C54.6875 34.2819 55.5618 35.1562 56.6406 35.1562H86.3281C87.4069 35.1562 88.2812 34.2819 88.2812 33.2031C88.2812 32.1243 87.4069 31.25 86.3281 31.25H56.6406C55.5618 31.25 54.6875 32.1243 54.6875 33.2031Z" fill="#E2EAF8"/>
<path d="M86.3281 39.0625H56.6406C55.5618 39.0625 54.6875 39.9368 54.6875 41.0156C54.6875 42.0944 55.5618 42.9688 56.6406 42.9688H86.3281C87.4069 42.9688 88.2812 42.0944 88.2812 41.0156C88.2812 39.9368 87.4069 39.0625 86.3281 39.0625Z" fill="#E2EAF8"/>
</g>
<defs>
<clipPath id="clip0_4908_229">
<rect width="100" height="100" fill="white"/>
</clipPath>
</defs>
</svg>
