<svg width="100" height="100" viewBox="0 0 100 100" fill="none" xmlns="http://www.w3.org/2000/svg">
<g clip-path="url(#clip0_4943_2020)">
<path d="M15.0703 45.8107H29.882C30.9608 45.8107 31.8351 44.9363 31.8351 43.8575C31.8351 42.7795 30.9608 41.9044 29.882 41.9044H15.0703C13.9915 41.9044 13.1172 42.7795 13.1172 43.8575C13.1172 44.9363 13.9915 45.8107 15.0703 45.8107Z" fill="#E2EAF8"/>
<path d="M15.0703 55.1864H31.1843C32.2624 55.1864 33.1374 54.3113 33.1374 53.2333C33.1374 52.1545 32.2624 51.2802 31.1843 51.2802H15.0703C13.9915 51.2802 13.1172 52.1545 13.1172 53.2333C13.1172 54.3113 13.9915 55.1864 15.0703 55.1864Z" fill="#E2EAF8"/>
<path d="M39.2417 55.1855C39.7552 55.1855 40.2595 54.9788 40.6226 54.6133C40.9858 54.2502 41.1948 53.7482 41.1948 53.2324C41.1948 52.719 40.9858 52.2147 40.6226 51.8515C40.2595 51.4883 39.7552 51.2793 39.2417 51.2793C38.7282 51.2793 38.2239 51.4883 37.8608 51.8515C37.4953 52.2147 37.2886 52.719 37.2886 53.2324C37.2886 53.7482 37.4953 54.2502 37.8608 54.6133C38.2239 54.9788 38.7259 55.1855 39.2417 55.1855Z" fill="#E2EAF8"/>
<path d="M57.4289 42.5796C66.9069 42.5796 74.6172 34.8693 74.6172 25.3914C74.6172 15.9141 66.9069 8.20312 57.4289 8.20312C47.9517 8.20312 40.2407 15.9141 40.2407 25.3914C40.2407 34.8693 47.9517 42.5796 57.4289 42.5796ZM57.4289 12.1101C64.7524 12.1101 70.7109 18.0679 70.7109 25.3914C70.7109 32.7148 64.7524 38.6733 57.4289 38.6733C50.1055 38.6733 44.1477 32.7148 44.1477 25.3914C44.1477 18.0679 50.1055 12.1101 57.4289 12.1101Z" fill="#E2EAF8"/>
<path d="M94.943 53.5399L92.5818 51.1786V24.6063C92.5818 19.2215 88.2002 14.8399 82.8154 14.8399H80.522C76.5082 6.0913 67.6673 0 57.4286 0C47.1908 0 38.3491 6.0913 34.336 14.8399H12.8914C7.50579 14.8399 3.125 19.2215 3.125 24.6063V73.8264C3.125 79.212 7.50579 83.5928 12.8914 83.5928H38.0805V88.2849C32.7827 88.3871 28.5049 92.7252 28.5049 98.0467C28.5049 99.1255 29.3792 99.9998 30.458 99.9998H65.2342C66.313 99.9998 67.1874 99.1255 67.1874 98.0467C67.1874 92.7252 62.9096 88.3879 57.6125 88.2849V83.5928H82.8154C88.201 83.5928 92.5818 79.212 92.5818 73.8264V64.4278C93.4576 64.1005 94.2617 63.5878 94.943 62.9065C97.5248 60.324 97.5248 56.1225 94.943 53.5399ZM82.8154 18.7469C86.0464 18.7469 88.6755 21.3752 88.6755 24.6063V47.2724L79.4409 38.0378C81.5901 34.3124 82.8207 29.9934 82.8207 25.3913C82.8207 23.0934 82.5117 20.8656 81.9365 18.7469H82.8154ZM57.4286 3.90624C69.2755 3.90624 78.9137 13.5444 78.9137 25.3913C78.9137 37.2382 69.2755 46.8764 57.4286 46.8764C45.5817 46.8764 35.9435 37.2382 35.9435 25.3913C35.9435 13.5444 45.5817 3.90624 57.4286 3.90624ZM12.8914 18.7469H32.9215C32.3463 20.8656 32.0373 23.0934 32.0373 25.3913C32.0373 27.8694 32.3959 30.2635 33.0604 32.5294H15.0703C13.9915 32.5294 13.1172 33.4037 13.1172 34.4825C13.1172 35.5605 13.9915 36.4356 15.0703 36.4356H34.5672C38.6825 44.9195 47.3838 50.7834 57.4286 50.7834C62.0299 50.7834 66.3489 49.5528 70.0743 47.4044L85.5765 62.9065C86.4447 63.7747 87.512 64.3714 88.6755 64.6559V66.4046H7.03124V24.6063C7.03124 21.3752 9.66033 18.7469 12.8914 18.7469ZM62.947 96.0936H32.7461C33.5517 93.8192 35.7246 92.1865 38.2713 92.1865H57.421C59.9677 92.1865 62.1405 93.8192 62.947 96.0936ZM53.7063 88.2803H41.9868V83.5928H53.7063V88.2803ZM82.8154 79.6866H12.8914C9.66033 79.6866 7.03124 77.0575 7.03124 73.8264V70.3108H88.6755V73.8264C88.6755 77.0575 86.0464 79.6866 82.8154 79.6866ZM92.1805 60.1439C91.1215 61.2036 89.3973 61.2029 88.3383 60.1439L73.3504 45.1552C74.7633 44.0154 76.0519 42.7268 77.1918 41.3138L92.1805 56.3025C93.2394 57.3615 93.2394 59.085 92.1805 60.1439Z" fill="#E2EAF8"/>
<path d="M57.4287 20.5093C60.1211 20.5093 62.3115 22.6997 62.3115 25.3913C62.3115 26.4701 63.1858 27.3444 64.2646 27.3444C65.3434 27.3444 66.2178 26.4701 66.2178 25.3913C66.2178 20.5451 62.2749 16.603 57.4287 16.603C56.3499 16.603 55.4756 17.4781 55.4756 18.5561C55.4756 19.6349 56.3499 20.5093 57.4287 20.5093Z" fill="#E2EAF8"/>
</g>
<defs>
<clipPath id="clip0_4943_2020">
<rect width="100" height="100" fill="white"/>
</clipPath>
</defs>
</svg>
