<svg width="100" height="100" viewBox="0 0 100 100" fill="none" xmlns="http://www.w3.org/2000/svg">
<path d="M100 69.0605V15.48C100 14.3974 99.1219 13.5193 98.0392 13.5193H31.5651V3.71857C31.5651 2.63596 30.687 1.75781 29.6043 1.75781H1.96075C0.878143 1.75781 0 2.63596 0 3.71857V69.0605C0 70.1431 0.878143 71.0213 1.96075 71.0213H54.0253C51.5564 74.5026 50.1411 78.73 50.1411 83.197V96.0915C50.1411 97.1741 51.0193 98.0522 52.1019 98.0522H97.9225C99.0059 98.0522 99.884 97.1741 99.884 96.0915V83.197C99.884 78.7308 98.468 74.5026 95.9999 71.0213H98.0385C99.1219 71.0213 100 70.1431 100 69.0605ZM3.92227 5.68008H27.6436V13.5193H3.92227V5.68008ZM95.9618 94.1307H86.7302V90.065C86.7302 88.9816 85.8521 88.1035 84.7694 88.1035C83.6868 88.1035 82.8087 88.9816 82.8087 90.065V94.1307H67.2211V82.0244C67.2211 80.9418 66.3429 80.0636 65.2596 80.0636C64.1769 80.0636 63.2988 80.9418 63.2988 82.0244V94.1307H54.0627V83.197C54.0627 75.9209 58.6784 69.4206 65.5479 67.0235L67.7528 66.2537L69.6259 70.9938C69.6365 71.022 69.6487 71.0495 69.6609 71.077C70.5597 73.0751 72.4785 74.3507 74.6681 74.4064C76.8593 74.4598 78.8391 73.2841 79.837 71.3341C79.8508 71.3074 79.8645 71.2807 79.8767 71.2524L82.1663 66.217L84.4765 67.0235C91.346 69.4206 95.9618 75.9201 95.9618 83.197V94.1307ZM75.6104 62.5626H74.0265C69.3054 62.5626 65.4648 58.7219 65.4648 54.0016V47.7158C66.9891 48.2094 68.3434 48.4581 69.5953 48.4581C70.8412 48.4581 71.9879 48.214 73.1049 47.7264C77.6009 45.7619 80.1117 46.0899 82.9277 46.7216C83.2733 46.7987 83.6411 46.8208 84.021 46.788C84.0691 46.7842 84.1202 46.7796 84.1721 46.7751V54.0016C84.1721 58.7219 80.3314 62.5626 75.6104 62.5626V62.5626ZM82.7309 40.5869C83.1963 41.2827 83.5617 42.0502 83.8089 42.8688C83.7776 42.8719 83.7471 42.8749 83.7135 42.878C79.805 42.009 76.5465 41.9426 71.5347 44.1315C70.5971 44.5419 69.278 44.8418 66.6054 43.9636C66.2544 43.8477 65.9203 43.7904 65.6113 43.7683C65.8203 42.6407 66.2514 41.5894 66.8579 40.6624C68.438 38.3263 71.209 36.7737 74.3584 36.7737H75.2831C78.3508 36.7737 81.1256 38.2713 82.7309 40.5869V40.5869ZM74.0265 66.4848H75.6104C76.3672 66.4848 77.108 66.4131 77.8282 66.2834L76.3283 69.5808C75.8659 70.4445 75.0137 70.4956 74.7673 70.4857C74.5163 70.4796 73.6725 70.3888 73.2536 69.503L71.9948 66.317C72.6563 66.4253 73.3345 66.4848 74.0265 66.4848ZM96.0777 67.099H92.3897C90.4671 65.4778 88.2378 64.1823 85.7689 63.3202L84.4101 62.8464C86.6844 60.5843 88.0943 57.4547 88.0943 54.0009V45.3346C88.0943 44.6121 88.0287 43.9049 87.9105 43.2152C87.896 43.0405 87.8708 42.8574 87.8288 42.6628C87.5038 41.1491 86.8896 39.7484 86.0512 38.504C83.8188 35.1028 79.9736 32.8514 75.6104 32.8514H74.0265C69.6068 32.8514 65.7188 35.1624 63.5002 38.6368C62.2635 40.5304 61.5448 42.7658 61.5448 45.1607C61.5448 45.1729 61.5463 45.1836 61.5463 45.1958C61.5456 45.2423 61.5425 45.2881 61.5425 45.3346V54.0009C61.5425 57.5058 62.9967 60.675 65.3305 62.9448L64.2563 63.3202C61.7867 64.1815 59.5573 65.477 57.6347 67.099H3.92227V17.4416H96.0777V67.099Z" fill="#E2EAF8"/>
<path d="M7.43115 23.3123V32.0869C7.43115 33.1695 8.3093 34.0477 9.39267 34.0477H49.9727C51.056 34.0477 51.9342 33.1695 51.9342 32.0869V23.3123C51.9342 22.229 51.056 21.3508 49.9727 21.3508H9.39267C8.3093 21.3508 7.43115 22.229 7.43115 23.3123V23.3123ZM11.3534 25.2731H48.0119V30.1254H11.3534V25.2731Z" fill="#E2EAF8"/>
<path d="M9.75128 40.9882H29.6831C30.7657 40.9882 31.6438 40.11 31.6438 39.0274C31.6438 37.9448 30.7657 37.0667 29.6831 37.0667H9.75128C8.66867 37.0667 7.79053 37.9448 7.79053 39.0274C7.79053 40.11 8.66791 40.9882 9.75128 40.9882Z" fill="#E2EAF8"/>
<path d="M49.9734 43.9843H9.39267C8.3093 43.9843 7.43115 44.8624 7.43115 45.945V54.7196C7.43115 55.8022 8.3093 56.6803 9.39267 56.6803H49.9727C51.056 56.6803 51.9342 55.8022 51.9342 54.7196V45.945C51.9342 44.8624 51.056 43.9843 49.9734 43.9843V43.9843ZM48.0119 52.7588H11.3534V47.9065H48.0119V52.7588Z" fill="#E2EAF8"/>
<path d="M36.9058 59.6992H9.75128C8.66867 59.6992 7.79053 60.5774 7.79053 61.6607C7.79053 62.7433 8.66867 63.6215 9.75128 63.6215H36.9058C37.9884 63.6215 38.8666 62.7433 38.8666 61.6607C38.8666 60.5774 37.9884 59.6992 36.9058 59.6992V59.6992Z" fill="#E2EAF8"/>
<path d="M39.1886 41.111C39.4335 41.111 39.6822 41.0645 39.9233 40.9668C40.9273 40.5609 41.4118 39.4173 41.0059 38.4133L40.9342 38.2378C40.5283 37.2338 39.3847 36.7501 38.3814 37.1559C37.3774 37.5618 36.8929 38.7055 37.2988 39.7087L37.3705 39.885C37.6787 40.6479 38.4134 41.111 39.1886 41.111Z" fill="#E2EAF8"/>
<path d="M86.2325 81.1127C85.8259 80.1086 84.683 79.6249 83.679 80.0308C82.6757 80.4367 82.1912 81.5804 82.5971 82.5844L82.6681 82.7599C82.9771 83.5228 83.7118 83.9859 84.4869 83.9859C84.7318 83.9859 84.9806 83.9394 85.2216 83.8417C86.2257 83.4358 86.7101 82.2922 86.3035 81.2889L86.2325 81.1127Z" fill="#E2EAF8"/>
</svg>
